<?xml version="1.0" standalone="no"?>
<!DOCTYPE svg PUBLIC "-//W3C//DTD SVG 20010904//EN"
 "http://www.w3.org/TR/2001/REC-SVG-20010904/DTD/svg10.dtd">
<svg version="1.0" xmlns="http://www.w3.org/2000/svg"
 width="150.000000pt" height="50.000000pt" viewBox="0 0 150.000000 50.000000"
 preserveAspectRatio="xMidYMid meet">

<g transform="translate(0.000000,50.000000) scale(0.100000,-0.100000)"
fill="#000000" stroke="none">
<path d="M486 422 c-3 -6 -1 -14 5 -17 15 -10 25 3 12 16 -7 7 -13 7 -17 1z"/>
<path d="M1006 422 c-3 -6 -1 -14 5 -17 15 -10 25 3 12 16 -7 7 -13 7 -17 1z"/>
<path d="M115 311 l0 -110 77 -3 c82 -3 88 0 88 45 0 21 -1 21 -13 -3 -11 -22
-20 -25 -70 -28 l-57 -3 0 94 c0 59 4 97 12 105 9 9 7 12 -12 12 l-25 0 0
-109z"/>
<path d="M589 404 c-14 -17 -3 -44 22 -53 12 -4 12 -2 0 12 -7 9 -11 26 -8 37
6 24 4 25 -14 4z"/>
<path d="M656 405 c4 -8 10 -15 15 -15 5 0 9 7 9 15 0 8 -7 15 -15 15 -9 0
-12 -6 -9 -15z"/>
<path d="M707 413 c-10 -9 -9 -23 2 -23 5 0 11 7 15 15 5 15 -5 20 -17 8z"/>
<path d="M805 311 l0 -110 77 -3 c82 -3 88 0 88 45 0 21 -1 21 -13 -3 -11 -22
-20 -25 -70 -28 l-57 -3 0 94 c0 59 4 97 12 105 9 9 7 12 -12 12 l-25 0 0
-109z"/>
<path d="M756 375 c-3 -9 -30 -27 -59 -40 -55 -24 -87 -48 -87 -66 0 -6 7 -3
16 5 20 20 68 21 84 1 10 -12 10 -21 2 -40 -9 -20 -9 -23 3 -19 8 3 17 15 21
27 7 23 -25 57 -55 57 -9 1 6 12 32 26 44 23 67 48 54 60 -2 3 -7 -2 -11 -11z"/>
<path d="M404 348 c21 -30 20 -37 -6 -48 l-23 -9 23 0 c17 -1 22 -6 21 -23 -3
-38 1 -68 9 -68 11 0 2 143 -10 158 -18 21 -30 13 -14 -10z"/>
<path d="M490 368 c-1 -2 -2 -40 -3 -86 -2 -67 1 -82 13 -82 12 0 14 15 12 85
-2 47 -8 85 -13 85 -5 0 -9 -1 -9 -2z"/>
<path d="M1010 368 c-1 -2 -2 -40 -3 -86 -2 -67 1 -82 13 -82 12 0 14 15 12
85 -2 47 -8 85 -13 85 -5 0 -9 -1 -9 -2z"/>
<path d="M1090 368 c-1 -2 -2 -40 -3 -86 -2 -73 0 -82 16 -82 10 0 16 4 13 8
-2 4 -6 42 -7 85 -2 42 -7 77 -11 77 -4 0 -8 -1 -8 -2z"/>
<path d="M1134 355 c-18 -14 -17 -14 8 -4 24 10 31 9 49 -7 17 -16 20 -28 17
-81 -2 -51 0 -63 12 -63 13 0 15 12 9 76 -4 49 -11 79 -20 85 -21 13 -53 11
-75 -6z"/>
<path d="M1364 354 c21 -21 20 -51 -1 -57 -17 -4 -17 -5 0 -6 20 -1 23 -31 5
-50 -10 -11 -10 -13 0 -7 8 5 12 0 12 -13 0 -12 5 -21 10 -21 6 0 10 30 10 69
0 68 -14 101 -41 101 -6 0 -3 -7 5 -16z"/>
<path d="M322 348 c-14 -14 -16 -28 -3 -28 5 0 11 9 14 20 6 23 5 24 -11 8z"/>
<path d="M1282 348 c-14 -14 -16 -28 -3 -28 5 0 11 9 14 20 6 23 5 24 -11 8z"/>
<path d="M626 341 c-3 -4 6 -6 19 -3 14 2 25 6 25 8 0 8 -39 4 -44 -5z"/>
<path d="M576 309 c-15 -12 -26 -30 -26 -44 0 -14 11 -32 26 -44 37 -29 48
-26 19 4 -30 29 -31 45 -4 79 25 31 21 33 -15 5z"/>
<path d="M316 264 c-30 -30 -12 -64 34 -63 25 0 25 0 2 9 -28 12 -38 36 -22
55 16 20 6 19 -14 -1z"/>
<path d="M1276 264 c-30 -30 -12 -64 34 -63 25 0 25 0 2 9 -28 12 -38 36 -22
55 16 20 6 19 -14 -1z"/>
<path d="M678 264 c-5 -4 -8 -16 -8 -28 0 -14 3 -17 11 -9 6 6 9 19 7 28 -1 9
-6 13 -10 9z"/>
</g>
</svg>
